<svg width="100" height="125" xmlns="http://www.w3.org/2000/svg">

 <g>
  <title>background</title>
  <rect fill="none" id="canvas_background" height="602" width="802" y="-1" x="-1"/>
 </g>
 <g>
  <title>Layer 1</title>
  <g id="svg_1">
   <path id="svg_2" d="m50,74c1.104,0 2,-0.896 2,-2l0,-23.055c0,-1.104 -0.896,-2 -2,-2s-2,0.896 -2,2l0,23.055c0,1.104 0.896,2 2,2z"/>
   <path id="svg_3" d="m57.958,73.935c0.069,0.007 0.138,0.01 0.205,0.01c1.014,0 1.883,-0.767 1.987,-1.797l2.339,-22.945c0.112,-1.099 -0.688,-2.08 -1.786,-2.192c-1.116,-0.113 -2.081,0.688 -2.192,1.787l-2.339,22.945c-0.112,1.098 0.687,2.079 1.786,2.192z"/>
   <path id="svg_4" d="m41.498,73.967c0.056,0 0.111,-0.002 0.168,-0.007c1.101,-0.092 1.919,-1.058 1.827,-2.159l-1.913,-22.988c-0.092,-1.101 -1.059,-1.917 -2.159,-1.827c-1.101,0.092 -1.919,1.058 -1.827,2.159l1.913,22.988c0.087,1.044 0.961,1.834 1.991,1.834z"/>
   <path id="svg_5" d="m73.72,29.186c1.083,-0.216 1.786,-1.27 1.569,-2.353c-0.216,-1.083 -1.274,-1.788 -2.353,-1.57l-13.841,2.762l-3.776,-6.08c-0.44,-0.708 -1.271,-1.067 -2.091,-0.906l-11.768,2.348c-0.817,0.163 -1.448,0.816 -1.582,1.639l-1.153,7.065l-13.841,2.763c-1.083,0.216 -1.786,1.27 -1.569,2.353c0.189,0.951 1.024,1.609 1.959,1.609c0.13,0 0.262,-0.013 0.394,-0.039l3.402,-0.679l2.936,44.035c0.068,1.051 0.941,1.867 1.994,1.867l32,0c1.053,0 1.926,-0.816 1.995,-1.867l3,-45c0.037,-0.552 -0.156,-1.095 -0.534,-1.499c-0.379,-0.405 -0.907,-0.634 -1.461,-0.634l-24.412,0l5.105,-1.019l24.027,-4.795zm-30.117,-2.147l9.05,-1.806l2.254,3.629l-5.996,1.197l-5.996,1.197l0.688,-4.217zm20.526,52.961l-28.258,0l-2.733,-41l33.725,0l-2.734,41z"/>
  </g>
 </g>
</svg>